HIERARCHY
ROOT ui
{
	 OFFSET 0 0 0
	 CHANNELS 3 XPosition YPosition Z Position
	 EndSite
	 {
	 OFFSET 0 -1 0
	 }
}
ROOT li
{
	 OFFSET 0 0 0
	 CHANNELS 3 XPosition YPosition Z Position
	 EndSite
	 {
	 OFFSET 0 -1 0
	 }
}
ROOT ul
{
	 OFFSET 0 0 0
	 CHANNELS 3 XPosition YPosition Z Position
	 EndSite
	 {
	 OFFSET 0 -1 0
	 }
}
ROOT ll
{
	 OFFSET 0 0 0
	 CHANNELS 3 XPosition YPosition Z Position
	 EndSite
	 {
	 OFFSET 0 -1 0
	 }
}
ROOT tt
{
	 OFFSET 0 0 0
	 CHANNELS 3 XPosition YPosition Z Position
	 EndSite
	 {
	 OFFSET 0 -1 0
	 }
}
ROOT tb
{
	 OFFSET 0 0 0
	 CHANNELS 3 XPosition YPosition Z Position
	 EndSite
	 {
	 OFFSET 0 -1 0
	 }
}
ROOT td
{
	 OFFSET 0 0 0
	 CHANNELS 3 XPosition YPosition Z Position
	 EndSite
	 {
	 OFFSET 0 -1 0
	 }
}
ROOT v
{
	 OFFSET 0 0 0
	 CHANNELS 3 XPosition YPosition Z Position
	 EndSite
	 {
	 OFFSET 0 -1 0
	 }
}
ROOT bn
{
	 OFFSET 0 0 0
	 CHANNELS 3 XPosition YPosition Z Position
	 EndSite
	 {
	 OFFSET 0 -1 0
	 }
}
MOTION
Frames: 24
Frame Time: 0.002
0.011866982460021974	-2.770349979400635E-4	0		0.5126761474609375	-2.398250244140625	0		-1.1035909423828125	0.09893275451660156	0		-0.7088759155273437	-2.65226708984375	0		1.8379033203125	-0.4787708129882812	0		3.44036279296875	-0.1753014373779297	0		4.7908134765625	-0.0445209846496582	0		5.88161328125	0.36977371215820315	0		-0.326642333984375	5.900421875	0		
-0.0340534553527832	0.004772336006164551	0		0.5235410766601563	-2.40518408203125	0		-1.101724365234375	0.09116541290283203	0		-0.68173974609375	-2.643469970703125	0		1.87388134765625	-0.4801452026367187	0		3.455191162109375	-0.18532423400878906	0		4.8008154296875	-0.04446868133544922	0		5.88439501953125	0.3596512451171875	0		-0.3265969543457031	5.90068212890625	0		
0.011894302368164062	2.471790015697479E-4	0		0.5376171264648437	-2.40116259765625	0		-1.0760487060546875	0.07099334716796875	0		-0.7254842529296875	-2.628444091796875	0		1.8456304931640626	-0.49540545654296875	0		3.47322802734375	-0.18438848876953126	0		4.80083837890625	-0.044230735778808594	0		5.876603515625	0.3655688171386719	0		-0.3265387573242188	5.90095068359375	0		
-0.03703840255737305	0.002362891912460327	0		0.5106519775390626	-2.40042822265625	0		-1.0812803955078125	0.05535905075073242	0		-0.7003204345703125	-2.6206005859375	0		1.8795797119140625	-0.5007277526855469	0		3.443205322265625	-0.18761659240722656	0		4.8098798828125	-0.044137870788574216	0		5.86933056640625	0.342070068359375	0		-0.4719962463378906	5.8717265625	0		
0.005899635791778565	-0.005102220058441162	0		0.5336167602539063	-2.405551513671875	0		-1.0974539794921876	0.04191621017456055	0		-0.7331759643554687	-2.6147548828125	0		1.8485609130859375	-0.5049266052246094	0		3.43918408203125	-0.19228758239746094	0		4.80580712890625	-0.051814472198486325	0		5.86710205078125	0.3235625	0		-0.45675234985351565	5.8807431640625	0		
0.012094964981079101	0.0010679620504379273	0		0.5216848754882812	-2.406072021484375	0		-1.0727266845703125	0.0207672119140625	0		-0.6910133056640625	-2.6102021484375	0		1.8545302734375	-0.5117615966796875	0		3.47913232421875	-0.20071455383300782	0		4.81484716796875	-0.05471320343017578	0		5.86459912109375	0.36390158081054685	0		-0.32234649658203124	5.89670751953125	0		
0.012221817970275878	0.0013397079706192016	0		0.5258729858398438	-2.401871337890625	0		-1.1167138671875	0.014801653861999511	0		-0.714632080078125	-2.594516845703125	0		1.8607926025390624	-0.5035999145507812	0		3.45957177734375	-0.1821109924316406	0		4.80837109375	-0.031338417053222656	0		5.85877490234375	0.33517474365234373	0		-0.3231675720214844	5.8989970703125	0		
0.012387008666992187	0.0016061999797821044	0		0.5131219482421875	-2.39638232421875	0		-1.059815673828125	-9.102399945259094E-4	0		-0.6893545532226563	-2.58768115234375	0		1.8859014892578125	-0.5067672729492188	0		3.445428466796875	-0.19960664367675782	0		4.8161728515625	-0.052215301513671875	0		5.85939697265625	0.3061822814941406	0		-0.455334228515625	5.88054296875	0		
0.009540661811828614	-0.0010831389427185059	0		0.5112744445800781	-2.399089111328125	0		-1.13194482421875	-0.019407049179077148	0		-0.7278001708984375	-2.5667529296875	0		1.8519560546875	-0.514922119140625	0		3.45863134765625	-0.19957376098632812	0		4.8163779296875	-0.051958900451660156	0		5.8482802734375	0.32785916137695315	0		-0.4683316955566406	5.86902783203125	0		
0.012835073471069335	0.0021122419834136963	0		0.5115209655761719	-2.398841064453125	0		-1.0650047607421875	-0.03731356048583984	0		-0.7332939453125	-2.5514052734375	0		1.883281494140625	-0.5102070922851563	0		3.477734130859375	-0.20764767456054686	0		4.81662109375	-0.05170455551147461	0		5.8525849609375	0.3073658447265625	0		-0.32158416748046875	5.8977529296875	0		
0.007009605884552002	-0.0035499119758605957	0		0.5148935546875	-2.39365771484375	0		-1.1348377685546875	-0.04287698745727539	0		-0.7577786865234375	-2.537745849609375	0		1.855547607421875	-0.5104831848144531	0		3.440293212890625	-0.19074742126464844	0		4.81102001953125	-0.0443489875793457	0		5.8463642578125	0.30807940673828127	0		-0.3203486328125	5.89696826171875	0		
0.01341612434387207	0.0025623250007629395	0		0.51724951171875	-2.391472412109375	0		-1.0656297607421874	-0.048856887817382816	0		-0.72316796875	-2.521123291015625	0		1.8869368896484375	-0.5057877197265624	0		3.4653193359375	-0.2069337158203125	0		4.81720263671875	-0.051199115753173825	0		5.8429169921875	0.29483984375	0		-0.32008843994140623	5.89718212890625	0		
0.010686311721801758	-1.890310049057007E-4	0		0.5155628662109375	-2.393235595703125	0		-1.1124730224609376	-0.05786146926879883	0		-0.7536939697265626	-2.513402099609375	0		1.87831689453125	-0.502416259765625	0		3.462867431640625	-0.19364982604980469	0		4.81164599609375	-0.04384796142578125	0		5.8468115234375	0.3089784240722656	0		-0.3471888122558594	5.87684326171875	0		
0.0079617018699646	-0.0029634220600128175	0		0.5299896240234375	-2.38929638671875	0		-0.9964380493164062	-0.07569666290283203	0		-0.724130126953125	-2.50173974609375	0		1.8668758544921875	-0.4890120849609375	0		3.443027587890625	-0.20308245849609374	0		4.81785205078125	-0.05070941925048828	0		5.83696240234375	0.29599810791015624	0		-0.466098876953125	5.86906005859375	0		
-0.044764312744140625	-0.004904397964477539	0		0.5162801513671875	-2.392898681640625	0		-1.1111881103515624	-0.07858847045898437	0		-0.7654899291992188	-2.484884765625	0		1.8672015380859375	-0.48883355712890625	0		3.42448876953125	-0.19455255126953125	0		4.80643017578125	-0.03527810287475586	0		5.835591796875	0.27226287841796876	0		-0.3183844299316406	5.89666943359375	0		
0.005507094860076904	-0.006643701076507569	0		0.5186546020507813	-2.390803955078125	0		-1.0748961181640626	-0.07910745239257813	0		-0.7821109619140625	-2.48248779296875	0		1.87057470703125	-0.48473114013671875	0		3.461559814453125	-0.2080022888183594	0		4.80258984375	-0.04299898910522461	0		5.84243017578125	0.30179571533203126	0		-0.44760858154296873	5.87400146484375	0		
-0.021138427734375	-0.001090610980987549	0		0.49914236450195315	-2.380361328125	0		-1.0977978515625	-0.08864275360107422	0		-0.7495604248046875	-2.468963623046875	0		1.87108935546875	-0.4706043395996094	0		3.42914208984375	-0.18927783203125	0		4.7979931640625	-0.03472586059570312	0		5.83548876953125	0.3024544677734375	0		-0.33224044799804686	5.88610888671875	0		
0.009067450523376465	-0.0025428130626678467	0		0.5275545654296875	-2.372769287109375	0		-1.0784686279296876	-0.08293109893798828	0		-0.7950669555664063	-2.45613232421875	0		1.8544322509765625	-0.46421142578125	0		3.42808251953125	-0.20612155151367187	0		4.78927392578125	-0.03140564727783203	0		5.8404970703125	0.2818165283203125	0		-0.4644817504882813	5.86742724609375	0		
-0.0336201286315918	0.005225377082824707	0		0.5106443481445313	-2.381431396484375	0		-1.08944970703125	-0.09273281097412109	0		-0.7249366455078124	-2.463313232421875	0		1.8487498779296876	-0.4570333557128906	0		3.43135888671875	-0.20106069946289062	0		4.794306640625	-0.04034547805786133	0		5.8312255859375	0.2634648132324219	0		-0.34526031494140624	5.87641357421875	0		
0.006330060005187988	-0.006450575828552246	0		0.5108465881347656	-2.38141259765625	0		-1.1252811279296875	-0.09113848114013672	0		-0.7925858764648438	-2.45416455078125	0		1.85014404296875	-0.4430009155273438	0		3.433285400390625	-0.21400271606445312	0		4.7854697265625	-0.03906836318969727	0		5.8308232421875	0.2931566467285156	0		-0.46443048095703127	5.8674453125	0		
-0.03742358779907227	0.0022786550521850584	0		0.4631893920898438	-2.370602294921875	0		-1.1493424072265626	-0.100777099609375	0		-0.7873170776367188	-2.448291259765625	0		1.8474298095703126	-0.432923095703125	0		3.420873779296875	-0.18571578979492187	0		4.78071142578125	-0.03087976264953613	0		5.8398779296875	0.25148591613769533	0		-0.31795538330078127	5.8969189453125	0		
0.015670708656311035	0.0033298139572143556	0		0.5162647705078125	-2.374536376953125	0		-1.14522119140625	-0.09792295074462891	0		-0.8170232543945313	-2.43884912109375	0		1.8398004150390626	-0.41578314208984374	0		3.39574609375	-0.19723838806152344	0		4.77078173828125	-0.030621532440185548	0		5.831625	0.28836630249023437	0		-0.31805178833007813	5.89686474609375	0		
0.009609865188598634	-0.002636439085006714	0		0.5065302734375	-2.365421875	0		-1.1122506103515626	-0.10258684539794923	0		-0.7918287963867188	-2.43436865234375	0		1.8339730224609374	-0.4086968688964844	0		3.422771484375	-0.19866535949707032	0		4.7677216796875	-0.036496978759765625	0		5.83650146484375	0.26758273315429687	0		-0.4515079345703125	5.879048828125	0		
0.009630414009094238	-0.0027290699481964113	0		0.4977793884277344	-2.356347412109375	0		-1.1532718505859374	-0.10501905059814454	0		-0.8256417846679688	-2.428910400390625	0		1.8173310546875	-0.3894462890625	0		3.386871337890625	-0.19404014587402343	0		4.75289794921875	-0.027186206817626953	0		5.83373828125	0.27823544311523435	0		-0.3335035400390625	5.8879384765625	0		
